<?xml version="1.0" standalone="no"?><svg xmlns="http://www.w3.org/2000/svg" viewBox="0 0 1440 320"><path fill="#ffffff" fill-opacity="1" d="M0,160L40,165.3C80,171,160,181,240,202.7C320,224,400,256,480,229.3C560,203,640,117,720,117.3C800,117,880,203,960,229.3C1040,256,1120,224,1200,181.3C1280,139,1360,85,1400,58.7L1440,32L1440,320L1400,320C1360,320,1280,320,1200,320C1120,320,1040,320,960,320C880,320,800,320,720,320C640,320,560,320,480,320C400,320,320,320,240,320C160,320,80,320,40,320L0,320Z"></path></svg>